{"title":"Dharam Sankat Mein (2015) EU DvD Scr - XviD - [1CD] - M-Subs - I","uid":11816587,"size":729185432,"categoryP":"video","categoryS":"other","magnet":"?xt=urn:btih:06d09a85619355484a0a69cb46bc0ed0021a8ed5&amp;dn=Dharam+Sankat+Mein+%282015%29+EU+DvD+Scr+-+XviD+-+%5B1CD%5D+-+M-Subs+-+I&amp;tr=udp%3A%2F%2Ftracker.openbittorrent.com%3A80&amp;tr=udp%3A%2F%2Fopen.demonii.com%3A1337&amp;tr=udp%3A%2F%2Ftracker.coppersurfer.tk%3A6969&amp;tr=udp%3A%2F%2Fexodus.desync.com%3A6969","seeders":8,"leechers":0,"uploader":"SS132203","files":5,"time":1429111969,"description":"Dharam Sankat Mein (2015) EU DvD Scr - XviD - [1CD] - M-Subs - IcTv LotterY Exclusive -={SPARROW}=-\n &lt;a href=&quot;\nhttp://imgsparrow.co/image/9B&quot; rel=&quot;nofollow&quot; target=&quot;_NEW&quot;&gt;\nhttp://imgsparrow.co/image/9B&lt;/a&gt;\n &lt;a href=&quot;\nhttp://imgsparrow.co/image/9b&quot; rel=&quot;nofollow&quot; target=&quot;_NEW&quot;&gt;\nhttp://imgsparrow.co/image/9b&lt;/a&gt;\n\nMovie Info\nBanner : Viacom 18 Motion Pictures\nYear : 2015\nCast : Naseeruddin Shah, Paresh Rawal, Annu Kapoor,\nVideo: XviD\nAudio : MP3\nGenre : Thriller\nSubtitles : English , French , Dutch, Spainish , German\nResolution : 640 x 272\nRuntime : 2hr 07min 6 Sec\nSource : Team IcTv\n\nFormat : AVI\nFormat/Info : Audio Video Interleave\nFile size : 690 MiB\nDuration : 2h 7mn\nOverall bit rate : 759 Kbps\n\nVideo\nCodec ID : XVID\nCodec ID/Hint : XviD\nDuration : 2h 7mn\nBit rate : 624 Kbps\nWidth : 640 pixels\nHeight : 272 pixels\nDisplay aspect ratio : 2.35:1\nFrame rate : 29.970 fps\nColor space : YUV\nChroma subsampling : 4:2:0\nBit depth : 8 bits\nScan type : Progressive\nCompression mode : Lossy\nBits/(Pixel*Frame) : 0.120\nStream size : 567 MiB (82%)\nWriting library : XviD 1.2.1 (UTC 2008-12-04)\n\nAudio\nID : 1\nFormat : MPEG Audio\nFormat version : Version 1\nFormat profile : Layer 3\nMode : Joint stereo\nMode extension : MS Stereo\nCodec ID : 55\nCodec ID/Hint : MP3\nDuration : 2h 7mn\nBit rate mode : Constant\nBit rate : 128 Kbps\nChannel(s) : 2 channels\nSampling rate : 48.0 KHz\nCompression mode : Lossy\nStream size : 116 MiB (17%)\nAlignment : Aligned on interleaves\nInterleave, duration : 133 ms (4.00 video frames)\n &lt;a href=&quot;\nhttp://imgsparrow.co/image/9h&quot; rel=&quot;nofollow&quot; target=&quot;_NEW&quot;&gt;\nhttp://imgsparrow.co/image/9h&lt;/a&gt;\n &lt;a href=&quot;\nhttp://imgsparrow.co/image/9K&quot; rel=&quot;nofollow&quot; target=&quot;_NEW&quot;&gt;\nhttp://imgsparrow.co/image/9K&lt;/a&gt; &lt;a href=&quot;\nhttp://imgsparrow.co/image/92&quot; rel=&quot;nofollow&quot; target=&quot;_NEW&quot;&gt;\nhttp://imgsparrow.co/image/92&lt;/a&gt; &lt;a href=&quot;\nhttp://imgsparrow.co/image/93&quot; rel=&quot;nofollow&quot; target=&quot;_NEW&quot;&gt;\nhttp://imgsparrow.co/image/93&lt;/a&gt; &lt;a href=&quot;\nhttp://imgsparrow.co/image/9i&quot; rel=&quot;nofollow&quot; target=&quot;_NEW&quot;&gt;\nhttp://imgsparrow.co/image/9i&lt;/a&gt; &lt;a href=&quot;\nhttp://imgsparrow.co/image/9V&quot; rel=&quot;nofollow&quot; target=&quot;_NEW&quot;&gt;\nhttp://imgsparrow.co/image/9V&lt;/a&gt; &lt;a href=&quot;\nhttp://imgsparrow.co/image/9l&quot; rel=&quot;nofollow&quot; target=&quot;_NEW&quot;&gt;\nhttp://imgsparrow.co/image/9l&lt;/a&gt; &lt;a href=&quot;\nhttp://imgsparrow.co/image/9s&quot; rel=&quot;nofollow&quot; target=&quot;_NEW&quot;&gt;\nhttp://imgsparrow.co/image/9s&lt;/a&gt; &lt;a href=&quot;\nhttp://imgsparrow.co/image/9S&quot; rel=&quot;nofollow&quot; target=&quot;_NEW&quot;&gt;\nhttp://imgsparrow.co/image/9S&lt;/a&gt;\n\nAll Credit Goes To Intellect Clever &amp; IcTv\n &lt;a href=&quot;\nhttp://imgsparrow.org/images/2015/02/22/SPARROW.gif&quot; rel=&quot;nofollow&quot; target=&quot;_NEW&quot;&gt;\nhttp://imgsparrow.org/images/2015/02/22/SPARROW.gif&lt;/a&gt;","torrent":{"xt":"urn:btih:06d09a85619355484a0a69cb46bc0ed0021a8ed5","amp;dn":"Dharam+Sankat+Mein+%282015%29+EU+DvD+Scr+-+XviD+-+%5B1CD%5D+-+M-Subs+-+I","amp;tr":["udp%3A%2F%2Ftracker.openbittorrent.com%3A80","udp%3A%2F%2Fopen.demonii.com%3A1337","udp%3A%2F%2Ftracker.coppersurfer.tk%3A6969","udp%3A%2F%2Fexodus.desync.com%3A6969"],"infoHash":"06d09a85619355484a0a69cb46bc0ed0021a8ed5","infoHashBuffer":{"type":"Buffer","data":[6,208,154,133,97,147,85,72,74,10,105,203,70,188,14,208,2,26,142,213]},"announce":[],"urlList":[]}}